<svg width="572" height="194" viewBox="0 0 572 194" fill="none" xmlns="http://www.w3.org/2000/svg">
<g clip-path="url(#clip0_2182_13387)">
<path d="M259.821 190.97C245.271 190.97 234.251 187.96 227.091 182.03C219.751 175.96 216.031 166.93 216.031 155.19V70.74C216.031 57.55 219.761 47.82 227.111 41.82C234.381 35.89 246.051 33 262.781 33H348.221C362.771 33 373.791 36.01 380.961 41.94C388.301 48.01 392.021 57.04 392.021 68.78V131.27H262.841V145.89H393.021L379.951 190.97H259.841H259.821ZM345.211 92.7V78.08H262.821V92.7H345.211Z" fill="#9F93F8"/>
<path d="M348.211 35.9998C362.121 35.9998 372.381 38.7398 379.031 44.2498C385.681 49.7598 389.001 57.9298 389.001 68.7798V128.27H259.821V148.89H389.001L377.671 187.97H259.821C245.921 187.97 235.651 185.23 229.001 179.72C222.351 174.21 219.031 166.04 219.031 155.19V70.7398C219.031 58.4398 222.351 49.5698 229.001 44.1498C235.651 38.7198 246.901 36.0098 262.771 36.0098H348.211M259.821 95.7098H348.211V75.0898H259.821V95.7098ZM348.211 30.0098H262.771C245.321 30.0098 233.041 33.1098 225.211 39.4998C217.131 46.0898 213.031 56.5998 213.031 70.7398V155.19C213.031 167.87 217.121 177.68 225.181 184.35C233.011 190.83 244.341 193.98 259.831 193.98H382.191L383.451 189.65L394.781 150.57L397.001 142.9H265.831V134.28H395.011V68.7898C395.011 56.1098 390.921 46.2998 382.861 39.6398C375.031 33.1598 363.701 30.0098 348.211 30.0098ZM265.821 81.0898H342.211V89.7098H265.821V81.0898Z" fill="#9F93F8"/>
<path d="M507.541 190.97L507.761 187.76C507.821 186.9 513.501 105.28 515.481 77.92C506.871 77.92 500.481 77.96 494.291 78C487.981 78.04 481.471 78.07 472.601 78.08L464.211 190.97H410.921L419.311 78.08H392.941L406.011 33H525.211C539.741 33 550.761 36.01 557.941 41.94C568.261 50.45 569.251 63.14 568.951 73.25C568.861 76.2 568.671 79.08 568.491 81.51L566.401 110.92C564.961 131.41 563.531 151.9 562.101 172.39L561.861 175.77C561.851 175.91 561.821 176.48 561.761 177.31C561.661 178.99 561.491 181.71 561.341 184.01C561.261 185.17 561.191 186.23 561.131 186.99C561.031 188.28 560.811 190.97 558.011 190.97H507.521H507.541Z" fill="#9F93F8"/>
<path d="M525.211 36C539.121 36 549.381 38.76 556.031 44.25C564.981 51.63 566.261 62.53 565.951 73.16C565.871 75.9 565.691 78.65 565.501 81.29C564.801 91.09 564.111 100.91 563.411 110.71C561.891 132.33 560.381 153.94 558.881 175.56C558.831 176.21 558.151 187.98 558.021 187.98H510.751C510.751 187.98 516.971 98.6 518.701 74.93C498.091 74.93 490.431 75.09 469.811 75.09L461.421 187.98H414.151L422.541 75.09H396.931L408.261 36.01H525.201M525.201 30.01H403.751L402.491 34.34L391.161 73.42L388.941 81.09H416.071L408.161 187.54L407.681 193.98H466.981L467.391 188.42L475.361 81.08C482.851 81.07 488.641 81.04 494.281 81.01C499.671 80.98 505.211 80.95 512.231 80.94C510.081 110.96 504.801 186.74 504.751 187.57L504.301 193.99H558.001C560.601 193.99 563.601 192.21 564.021 188.3C564.051 188.05 564.081 187.69 564.121 187.24C564.181 186.47 564.261 185.4 564.331 184.22C564.481 181.92 564.651 179.2 564.751 177.51C564.801 176.71 564.831 176.14 564.841 175.99L565.081 172.53C566.511 152.06 567.931 131.59 569.371 111.12L570.361 97.17L571.461 81.7C571.631 79.41 571.841 76.38 571.931 73.33C572.241 62.54 571.151 48.95 559.831 39.62C552.091 33.24 540.441 30 525.191 30L525.201 30.01Z" fill="#9F93F8"/>
<path d="M96.6802 190.97V169.98L63.6102 190.97H32.9902V145.89H49.4002L154.69 79.29V78.08H42.0702V33H159.98C172.54 33 182.65 35.88 190.02 41.54C197.64 47.4 201.5 56.2 201.5 67.69V103.42L132.9 146.97H208.98V190.96H96.6902L96.6802 190.97Z" fill="#9F93F8"/>
<path d="M159.97 36.0002C171.9 36.0002 181.31 38.6402 188.19 43.9202C195.07 49.2102 198.5 57.1302 198.5 67.6902V101.77L122.58 149.97H205.98V187.96H99.6898V164.51L62.7498 187.96H36.0098V148.88H50.2898L157.72 80.9302V75.0702H45.0698V35.9902H159.98M159.98 29.9902H39.0698V81.0702H146.27L48.5498 142.88H30.0098V193.96H64.4998L65.9698 193.03L93.6998 175.43V193.96H211.99V143.97H143.23L201.72 106.84L204.5 105.07V67.6902C204.5 55.2102 200.24 45.6102 191.84 39.1602C183.93 33.0802 173.2 29.9902 159.97 29.9902H159.98Z" fill="#9F93F8"/>
<path d="M249.821 180.97C235.271 180.97 224.251 177.96 217.091 172.03C209.751 165.96 206.031 156.93 206.031 145.19V60.74C206.031 47.55 209.761 37.82 217.111 31.82C224.381 25.89 236.051 23 252.781 23H338.221C352.771 23 363.791 26.01 370.961 31.94C378.301 38.01 382.021 47.04 382.021 58.78V121.27H252.841V135.89H383.021L369.951 180.97H249.841H249.821ZM335.211 82.7V68.08H252.821V82.7H335.211Z" fill="#6551F3"/>
<path d="M338.211 26C352.121 26 362.381 28.74 369.031 34.25C375.681 39.76 379.001 47.93 379.001 58.78V118.27H249.821V138.89H379.001L367.671 177.97H249.821C235.921 177.97 225.651 175.23 219.001 169.72C212.351 164.21 209.031 156.04 209.031 145.19V60.74C209.031 48.44 212.351 39.57 219.001 34.15C225.651 28.72 236.901 26.01 252.771 26.01H338.211M249.821 85.71H338.211V65.09H249.821V85.71ZM338.211 20.01H252.771C235.321 20.01 223.041 23.11 215.211 29.5C207.131 36.09 203.031 46.6 203.031 60.74V145.19C203.031 157.87 207.121 167.68 215.181 174.35C223.011 180.83 234.341 183.98 249.831 183.98H372.191L373.451 179.65L384.781 140.57L387.001 132.9H255.831V124.28H385.011V58.78C385.011 46.1 380.921 36.29 372.861 29.63C365.031 23.15 353.701 20 338.211 20V20.01ZM255.821 71.09H332.211V79.71H255.821V71.09Z" fill="#6551F3"/>
<path d="M497.541 180.97L497.761 177.76C497.821 176.9 503.501 95.28 505.481 67.92C496.871 67.92 490.481 67.96 484.291 68C477.981 68.04 471.471 68.07 462.601 68.08L454.211 180.97H400.921L409.311 68.08H382.941L396.011 23H515.211C529.741 23 540.761 26.01 547.941 31.94C558.261 40.45 559.251 53.14 558.951 63.25C558.861 66.2 558.671 69.08 558.491 71.51L556.401 100.92C554.961 121.41 553.531 141.9 552.101 162.39L551.861 165.77C551.851 165.91 551.821 166.48 551.761 167.31C551.661 168.99 551.491 171.71 551.341 174.01C551.261 175.17 551.191 176.23 551.131 176.99C551.031 178.28 550.811 180.97 548.011 180.97H497.521H497.541Z" fill="#6551F3"/>
<path d="M515.211 26C529.121 26 539.381 28.76 546.031 34.25C554.981 41.63 556.261 52.53 555.951 63.16C555.871 65.9 555.691 68.65 555.501 71.29C554.801 81.09 554.111 90.91 553.411 100.71C551.891 122.33 550.381 143.94 548.881 165.56C548.831 166.21 548.151 177.98 548.021 177.98H500.751C500.751 177.98 506.971 88.6 508.701 64.93C488.091 64.93 480.431 65.09 459.811 65.09L451.421 177.98H404.151L412.541 65.09H386.931L398.261 26.01H515.201M515.201 20.01H393.751L392.491 24.34L381.161 63.42L378.941 71.09H406.071L398.161 177.54L397.681 183.98H456.981L457.391 178.42L465.361 71.08C472.851 71.07 478.641 71.04 484.281 71.01C489.671 70.98 495.211 70.95 502.231 70.94C500.081 100.96 494.801 176.74 494.751 177.57L494.301 183.99H548.001C550.601 183.99 553.601 182.21 554.021 178.3C554.051 178.05 554.081 177.69 554.121 177.24C554.181 176.47 554.261 175.4 554.331 174.22C554.481 171.92 554.651 169.2 554.751 167.51C554.801 166.71 554.831 166.14 554.841 165.99L555.081 162.53C556.511 142.06 557.931 121.59 559.371 101.12L560.361 87.17L561.461 71.7C561.631 69.41 561.841 66.38 561.931 63.33C562.241 52.54 561.151 38.95 549.831 29.62C542.091 23.24 530.441 20 515.191 20L515.201 20.01Z" fill="#6551F3"/>
<path d="M86.6802 180.97V159.98L53.6102 180.97H22.9902V135.89H39.4002L144.69 69.29V68.08H32.0702V23H149.98C162.54 23 172.65 25.88 180.02 31.54C187.64 37.4 191.5 46.2 191.5 57.69V93.42L122.9 136.97H198.98V180.96H86.6902L86.6802 180.97Z" fill="#6551F3"/>
<path d="M149.97 26C161.9 26 171.31 28.64 178.19 33.92C185.07 39.21 188.5 47.13 188.5 57.69V91.77L112.58 139.97H195.98V177.96H89.6898V154.51L52.7498 177.96H26.0098V138.88H40.2898L147.72 70.93V65.07H35.0698V26H149.98M149.98 20H29.0698V71.08H136.27L38.5498 132.89H20.0098V183.97H54.4998L55.9698 183.04L83.6998 165.44V183.97H201.99V133.98H133.23L191.72 96.85L194.5 95.08V57.7C194.5 45.22 190.24 35.62 181.84 29.17C173.93 23.09 163.2 20 149.97 20H149.98Z" fill="#6551F3"/>
<path d="M386.99 132.891L376.99 122.891L374.09 132.891H386.99Z" fill="#6551F3"/>
<path d="M181.978 113.98L191.978 123.98L180.828 124.07L181.978 113.98Z" fill="#1D1D1B"/>
<path d="M239.821 170.97C225.271 170.97 214.251 167.96 207.091 162.03C199.751 155.96 196.031 146.93 196.031 135.19V50.74C196.031 37.55 199.761 27.82 207.111 21.82C214.381 15.89 226.051 13 242.781 13H328.221C342.771 13 353.791 16.01 360.961 21.94C368.301 28.01 372.021 37.04 372.021 48.78V111.27H242.841V125.89H373.021L359.951 170.97H239.841H239.821ZM325.211 72.7V58.08H242.821V72.7H325.211Z" fill="#1D1D1B"/>
<path d="M328.211 16C342.121 16 352.381 18.74 359.031 24.25C365.681 29.76 369.001 37.93 369.001 48.78V108.27H239.821V128.89H369.001L357.671 167.97H239.821C225.921 167.97 215.651 165.23 209.001 159.72C202.351 154.21 199.031 146.04 199.031 135.19V50.74C199.031 38.44 202.351 29.57 209.001 24.15C215.651 18.72 226.901 16.01 242.771 16.01H328.211M239.821 75.71H328.211V55.09H239.821V75.71ZM328.211 10H242.771C225.321 10 213.041 13.1 205.211 19.49C197.131 26.08 193.031 36.59 193.031 50.73V135.18C193.031 147.86 197.121 157.67 205.181 164.34C213.011 170.82 224.341 173.97 239.831 173.97H362.191L363.451 169.64L374.781 130.56L377.001 122.89H245.831V114.27H375.011V48.78C375.011 36.1 370.921 26.29 362.861 19.63C355.031 13.15 343.701 10 328.211 10ZM245.821 61.08H322.211V69.7H245.821V61.08Z" fill="#1D1D1B"/>
<path d="M487.541 170.97L487.761 167.76C487.821 166.9 493.501 85.28 495.481 57.92C486.871 57.92 480.481 57.96 474.291 58C467.981 58.04 461.471 58.07 452.601 58.08L444.211 170.97H390.921L399.311 58.08H372.941L386.011 13H505.211C519.741 13 530.761 16.01 537.941 21.94C548.261 30.45 549.251 43.14 548.951 53.25C548.861 56.2 548.671 59.08 548.491 61.51L546.401 90.92C544.961 111.41 543.531 131.9 542.101 152.39L541.861 155.77C541.851 155.91 541.821 156.48 541.761 157.31C541.661 158.99 541.491 161.71 541.341 164.01C541.261 165.17 541.191 166.23 541.131 166.99C541.031 168.28 540.811 170.97 538.011 170.97H487.521H487.541Z" fill="#1D1D1B"/>
<path d="M505.211 16C519.121 16 529.381 18.76 536.031 24.25C544.981 31.63 546.261 42.53 545.951 53.16C545.871 55.9 545.691 58.65 545.501 61.29C544.801 71.09 544.111 80.91 543.411 90.71C541.891 112.33 540.381 133.94 538.881 155.56C538.831 156.21 538.151 167.98 538.021 167.98H490.751C490.751 167.98 496.971 78.6 498.701 54.93C478.091 54.93 470.431 55.09 449.811 55.09L441.421 167.98H394.151L402.541 55.09H376.931L388.261 16.01H505.201M505.201 10.01H383.751L382.491 14.34L371.161 53.42L368.941 61.09H396.071L388.161 167.54L387.681 173.98H446.981L447.391 168.42L455.361 61.08C462.851 61.07 468.641 61.04 474.281 61.01C479.671 60.98 485.211 60.95 492.231 60.94C490.081 90.96 484.801 166.74 484.751 167.57L484.301 173.99H538.001C540.601 173.99 543.601 172.21 544.021 168.3C544.051 168.05 544.081 167.69 544.121 167.24C544.181 166.47 544.261 165.4 544.331 164.22C544.481 161.92 544.651 159.2 544.751 157.51C544.801 156.71 544.831 156.14 544.841 155.99L545.081 152.53C546.511 132.06 547.931 111.59 549.371 91.12L550.361 77.17L551.461 61.7C551.631 59.41 551.841 56.38 551.931 53.33C552.241 42.54 551.151 28.95 539.831 19.62C532.091 13.24 520.441 10 505.191 10L505.201 10.01Z" fill="#1D1D1B"/>
<path d="M76.68 170.97V149.98L43.61 170.97H13V125.89H29.41L134.7 59.29V58.08H22.07V13H139.98C152.54 13 162.65 15.88 170.02 21.54C177.64 27.4 181.5 36.2 181.5 47.69V83.42L112.9 126.97H188.98V170.96H76.69L76.68 170.97Z" fill="#1D1D1B"/>
<path d="M139.97 16C151.9 16 161.31 18.64 168.19 23.92C175.07 29.21 178.5 37.13 178.5 47.69V81.77L102.58 129.97H185.98V167.96H79.69V144.51L42.75 167.96H16.01V128.88H30.29L137.72 60.93V55.07H25.07V16H139.98M139.98 10H19.07V61.08H126.27L28.54 122.89H10V173.97H44.49L45.96 173.04L73.69 155.44V173.97H191.98V123.98H123.22L181.71 86.85L184.49 85.08V47.7C184.49 35.22 180.23 25.62 171.83 19.17C163.92 13.09 153.19 10 139.96 10H139.98Z" fill="#1D1D1B"/>
<path d="M229.821 160.97C215.271 160.97 204.251 157.96 197.091 152.03C189.751 145.96 186.031 136.93 186.031 125.19V40.74C186.031 27.55 189.761 17.82 197.111 11.82C204.381 5.89 216.051 3 232.781 3H318.221C332.771 3 343.791 6.01 350.961 11.94C358.301 18.01 362.021 27.04 362.021 38.78V101.27H232.841V115.89H363.021L349.951 160.97H229.841H229.821ZM315.211 62.7V48.08H232.821V62.7H315.211Z" fill="white"/>
<path d="M318.21 6C332.12 6 342.38 8.74 349.03 14.25C355.68 19.76 359 27.93 359 38.78V98.27H229.82V118.89H359L347.67 157.97H229.82C215.92 157.97 205.65 155.23 199 149.72C192.35 144.21 189.03 136.04 189.03 125.19V40.74C189.03 28.44 192.35 19.57 199 14.15C205.65 8.72 216.9 6.01 232.77 6.01H318.21M229.82 65.71H318.21V45.09H229.82V65.71ZM318.21 0H232.77C215.32 0 203.03 3.11 195.2 9.49C187.12 16.08 183.02 26.59 183.02 40.73V125.18C183.02 137.86 187.11 147.67 195.17 154.34C203 160.82 214.33 163.97 229.82 163.97H352.18L353.44 159.64L364.77 120.56L366.99 112.89H235.82V104.27H365V38.78C365 26.1 360.91 16.29 352.85 9.63C345.03 3.15 333.69 0 318.21 0ZM235.82 51.08H312.21V59.7H235.82V51.08Z" fill="#1D1D1B"/>
<path d="M477.538 160.97L477.758 157.76C477.818 156.9 483.498 75.28 485.478 47.92C476.868 47.92 470.478 47.96 464.288 48C457.978 48.04 451.468 48.07 442.598 48.08L434.207 160.97H380.918L389.307 48.08H362.938L376.008 3H495.207C509.737 3 520.758 6.01 527.938 11.94C538.258 20.45 539.248 33.14 538.948 43.25C538.858 46.2 538.667 49.08 538.487 51.51L536.398 80.92C534.958 101.41 533.527 121.9 532.097 142.39L531.857 145.77C531.847 145.91 531.818 146.48 531.758 147.31C531.658 148.99 531.488 151.71 531.338 154.01C531.258 155.17 531.188 156.23 531.128 156.99C531.027 158.28 530.808 160.97 528.008 160.97H477.517H477.538Z" fill="white"/>
<path d="M495.209 6C509.119 6 519.379 8.76 526.029 14.25C534.979 21.63 536.259 32.53 535.949 43.16C535.869 45.9 535.689 48.65 535.499 51.29C534.799 61.09 534.109 70.91 533.409 80.71C531.889 102.33 530.379 123.94 528.879 145.56C528.829 146.21 528.149 157.98 528.019 157.98H480.749C480.749 157.98 486.969 68.6 488.699 44.93C468.089 44.93 460.429 45.09 439.809 45.09L431.419 157.98H384.149L392.539 45.09H366.929L378.259 6.01H495.199M495.209 0H373.759L372.499 4.33L361.169 43.41L358.949 51.08H386.079L378.169 157.53L377.689 163.97H436.989L437.399 158.41L445.369 51.07C452.859 51.06 458.649 51.03 464.289 51C469.679 50.97 475.219 50.94 482.239 50.93C480.089 80.95 474.809 156.73 474.759 157.56L474.309 163.98H528.009C530.609 163.98 533.609 162.2 534.029 158.29C534.059 158.04 534.089 157.68 534.129 157.23C534.189 156.46 534.269 155.39 534.339 154.21C534.489 151.91 534.659 149.19 534.759 147.5C534.809 146.7 534.839 146.13 534.849 145.98L535.089 142.52C536.519 122.05 537.939 101.58 539.379 81.11L540.369 67.16L541.469 51.69C541.639 49.4 541.849 46.37 541.939 43.32C542.249 32.53 541.159 18.94 529.839 9.61C522.119 3.24 510.459 0 495.209 0Z" fill="#1D1D1B"/>
<path d="M66.68 160.97V139.98L33.61 160.97H3V115.89H19.41L124.7 49.29V48.08H12.07V3H129.98C142.54 3 152.65 5.88 160.02 11.54C167.64 17.4 171.5 26.2 171.5 37.69V73.42L102.9 116.97H178.98V160.96H66.69L66.68 160.97Z" fill="white"/>
<path d="M129.97 6C141.9 6 151.31 8.64 158.19 13.92C165.07 19.21 168.5 27.13 168.5 37.69V71.77L92.58 119.97H175.98V157.96H69.69V134.51L32.75 157.96H6V118.88H20.28L127.7 50.94V45.08H15.07V6H129.98M129.98 0H9.07V51.08H116.27L18.54 112.89H0V163.97H34.49L35.96 163.04L63.69 145.44V163.97H181.98V113.98H113.22L171.71 76.85L174.49 75.08V37.7C174.49 25.22 170.23 15.62 161.83 9.17C153.92 3.09 143.19 0 129.96 0L129.98 0Z" fill="#1D1D1B"/>
<path d="M0 163.971L10 173.971L13 170.971L10 163.971L3 160.971L0 163.971Z" fill="#1D1D1B"/>
<path d="M63.6895 163.971L73.6895 173.971L76.6895 170.971L73.6895 163.971L66.6895 160.971L63.6895 163.971Z" fill="#1D1D1B"/>
<path d="M10 173.971L20 183.971L23 180.971L20 173.971H10Z" fill="#6551F3"/>
<path d="M73.6914 173.971L83.6914 183.971L86.6914 180.971L83.6914 173.971H73.6914Z" fill="#6551F3"/>
<path d="M20 183.971L30 193.971L34.57 189.281L30 183.971H20Z" fill="#9F93F8"/>
<path d="M83.6992 183.971L93.6992 193.971L98.2692 189.281L93.6992 183.971H83.6992Z" fill="#9F93F8"/>
<path d="M377.699 163.971L387.699 173.971L390.939 172.741L390.569 163.971H377.699Z" fill="#1D1D1B"/>
<path d="M387.699 173.971L397.699 183.971H402.089V173.971H387.699Z" fill="#6551F3"/>
<path d="M397.699 183.971L407.699 193.971H411.839L412.349 183.971H397.699Z" fill="#9F93F8"/>
<path d="M474.328 163.971L484.328 173.971H487.968L487.188 163.971H474.328Z" fill="#1D1D1B"/>
<path d="M484.328 173.971L494.328 183.971H500.758V177.971V173.971H484.328Z" fill="#6551F3"/>
<path d="M494.328 183.971H507.348L504.328 193.971L494.328 183.971Z" fill="#9F93F8"/>
<path d="M366.99 112.891L376.99 122.891H363L366.99 112.891Z" fill="#1D1D1B"/>
<path d="M9.07031 51.0801L19.0703 61.0801H23.0003L22.4403 51.0801H9.07031Z" fill="#1D1D1B"/>
<path d="M19.0703 61.0801L29.0703 71.0801H31.8603L33.4103 61.0801H19.0703Z" fill="#6551F3"/>
<path d="M29.0703 71.0801L39.0703 81.0801H43.4903V71.0801H29.0703Z" fill="#9F93F8"/>
</g>
<defs>
<clipPath id="clip0_2182_13387">
<rect width="572" height="193.97" fill="white"/>
</clipPath>
</defs>
</svg>
